<?xml version="1.0" encoding="UTF-8"?>
<svg version="1.1" xmlns="http://www.w3.org/2000/svg" width="288" height="288">
<path d="M0 0 C9.21088877 2.71358134 18.23498983 5.96173518 27.26611328 9.21582031 C30.09902543 10.23633164 32.93418529 11.25038417 35.76977539 12.26342773 C37.60129094 12.91995135 39.43267562 13.57684017 41.26391602 14.23413086 C42.51278343 14.68120644 42.51278343 14.68120644 43.78688049 15.13731384 C60.35698848 21.11626583 60.35698848 21.11626583 62.04125977 22.80053711 C62.11331488 24.48662677 62.12512044 26.1755437 62.10375977 27.86303711 C62.09473633 28.78213867 62.08571289 29.70124023 62.07641602 30.64819336 C62.06481445 31.3584668 62.05321289 32.06874023 62.04125977 32.80053711 C62.79149414 32.58397461 63.54172852 32.36741211 64.31469727 32.14428711 C77.40553521 28.5830516 89.29361988 28.74292852 101.41625977 35.55053711 C106.31340852 38.70490024 110.41333964 42.54469686 113.04125977 47.80053711 C113.22688477 46.09897461 113.22688477 46.09897461 113.41625977 44.36303711 C113.72563477 42.59959961 113.72563477 42.59959961 114.04125977 40.80053711 C116.56601438 39.5381598 118.35326442 39.70197307 121.16625977 39.73803711 C122.07633789 39.74706055 122.98641602 39.75608398 123.92407227 39.76538086 C124.62274414 39.77698242 125.32141602 39.78858398 126.04125977 39.80053711 C126.37125977 40.79053711 126.70125977 41.78053711 127.04125977 42.80053711 C127.82436523 42.36741211 127.82436523 42.36741211 128.62329102 41.92553711 C135.41530074 38.4997949 141.82714151 37.33948821 149.27172852 39.42553711 C154.77066045 41.80805307 158.91321291 45.72439019 162.04125977 50.80053711 C163.69672034 55.06371435 164.95178407 59.36143117 166.04125977 63.80053711 C166.61231445 63.46280273 167.18336914 63.12506836 167.77172852 62.77709961 C174.71600966 58.95719297 181.19791365 57.62421139 189.04125977 56.80053711 C187.73230257 53.67856233 187.73230257 53.67856233 185.04125977 51.80053711 C179.81306566 51.35886256 175.88845046 51.78087432 171.04125977 53.80053711 C168.22875977 53.42553711 168.22875977 53.42553711 166.04125977 52.80053711 C165.05125977 48.34553711 165.05125977 48.34553711 164.04125977 43.80053711 C172.71472161 39.31924849 179.13932054 38.05276582 189.04125977 38.80053711 C191.34204102 39.54272461 191.34204102 39.54272461 193.16625977 40.42553711 C194.11500977 40.87928711 195.06375977 41.33303711 196.04125977 41.80053711 C197.03125977 41.14053711 198.02125977 40.48053711 199.04125977 39.80053711 C201.85375977 39.42944336 201.85375977 39.42944336 205.04125977 39.36303711 C206.61907227 39.3030957 206.61907227 39.3030957 208.22875977 39.24194336 C211.04125977 39.80053711 211.04125977 39.80053711 212.69360352 41.70288086 C214.56175012 45.9969106 216.10898311 50.36442573 217.60375977 54.80053711 C218.2082652 56.57169952 218.81370575 58.3425431 219.42016602 60.11303711 C219.68385986 60.89291992 219.94755371 61.67280273 220.21923828 62.47631836 C221.09312705 64.94718889 222.05296125 67.37341986 223.04125977 69.80053711 C223.47994385 68.49064819 223.47994385 68.49064819 223.92749023 67.15429688 C225.01370298 63.92258774 226.10649027 60.6932622 227.20385742 57.46533203 C227.67788014 56.0664939 228.14924632 54.66675267 228.61791992 53.26611328 C229.29116367 51.25563381 229.97382348 49.24857161 230.65844727 47.24194336 C231.06691895 46.03223877 231.47539062 44.82253418 231.89624023 43.57617188 C233.04125977 40.80053711 233.04125977 40.80053711 235.04125977 39.80053711 C236.91505582 39.73019942 238.79127078 39.71623491 240.66625977 39.73803711 C242.1705957 39.75157227 242.1705957 39.75157227 243.70532227 39.76538086 C244.86161133 39.7827832 244.86161133 39.7827832 246.04125977 39.80053711 C247.19140625 41.33276367 247.19140625 41.33276367 248.04125977 43.80053711 C247.3781971 46.44673069 246.62867961 48.76354686 245.63891602 51.28491211 C245.36413925 52.01816711 245.08936249 52.75142212 244.80625916 53.50689697 C243.91959611 55.86042742 243.01158512 58.20510046 242.10375977 60.55053711 C241.52628099 62.08259722 240.95009613 63.6151457 240.37524414 65.14819336 C237.52144824 72.70204208 234.51833965 80.18159381 231.29516602 87.58569336 C231.01488052 88.23064758 230.73459503 88.87560181 230.44581604 89.5401001 C225.57021655 100.5679489 219.96804412 109.15249748 209.04125977 114.80053711 C206.98266602 115.56616211 206.98266602 115.56616211 205.04125977 115.80053711 C201.37933004 113.35925062 201.03086818 112.00637286 200.04125977 107.80053711 C200.22485352 105.28491211 200.22485352 105.28491211 201.04125977 102.80053711 C202.96704102 101.21069336 202.96704102 101.21069336 205.35375977 99.86303711 C209.40418139 97.33071609 212.02930539 95.28170821 214.04125977 90.80053711 C213.70916373 84.49881238 211.38502508 79.13740954 208.97875977 73.36303711 C207.67938477 70.20741211 206.38000977 67.05178711 205.04125977 63.80053711 C204.71125977 73.37053711 204.38125977 82.94053711 204.04125977 92.80053711 C195.04125977 93.80053711 195.04125977 93.80053711 192.54125977 92.67553711 C189.49539993 91.60948617 188.78829468 92.09597553 185.85375977 93.23803711 C179.76606719 95.52473298 174.11431475 95.13664797 168.16625977 92.55053711 C165.13419082 90.05353915 162.80104889 87.32011536 161.04125977 83.80053711 C160.57977539 84.34323242 160.11829102 84.88592773 159.64282227 85.44506836 C154.05947211 91.56909867 149.07612905 94.25287009 140.80297852 95.00366211 C137.08833283 95.0876089 133.65606353 94.57202707 130.04125977 93.80053711 C130.02144043 94.36562988 130.00162109 94.93072266 129.98120117 95.51293945 C129.8860774 98.06761708 129.77634919 100.62146252 129.66625977 103.17553711 C129.63532227 104.06499023 129.60438477 104.95444336 129.57250977 105.87084961 C129.51450195 107.14702148 129.51450195 107.14702148 129.45532227 108.44897461 C129.42390137 109.23449707 129.39248047 110.02001953 129.36010742 110.8293457 C129.04125977 112.80053711 129.04125977 112.80053711 127.04125977 114.80053711 C124.43969727 114.99584961 124.43969727 114.99584961 121.41625977 114.92553711 C120.41336914 114.90749023 119.41047852 114.88944336 118.37719727 114.87084961 C117.60633789 114.84764648 116.83547852 114.82444336 116.04125977 114.80053711 C114.36997044 111.85672223 113.76394217 109.62670317 113.62719727 106.25366211 C113.58852539 105.40932617 113.54985352 104.56499023 113.51000977 103.69506836 C113.47907227 102.82237305 113.44813477 101.94967773 113.41625977 101.05053711 C113.37758789 100.16237305 113.33891602 99.27420898 113.29907227 98.35913086 C113.20505104 96.17313731 113.11939833 93.98714649 113.04125977 91.80053711 C112.62875977 92.30842773 112.21625977 92.81631836 111.79125977 93.33959961 C103.7043927 102.97885633 95.41259851 108.64531448 82.65063477 110.21850586 C71.12180671 110.69671958 61.04060173 107.77377902 52.10375977 100.36303711 C44.30102444 92.64097999 39.23280141 82.9099523 39.04125977 71.80053711 C38.09250977 71.71803711 37.14375977 71.63553711 36.16625977 71.55053711 C28.50875237 70.43219931 21.39620215 67.41047675 16.04125977 61.80053711 C12.36396915 56.45697418 11.60726601 52.20194494 12.04125977 45.80053711 C12.04125977 42.43889904 11.6634845 41.99899884 9.66625977 39.48803711 C6.69795915 35.48251782 4.74882278 32.042554 5.41625977 26.92553711 C5.72563477 25.87366211 5.72563477 25.87366211 6.04125977 24.80053711 C11.51210178 25.33604881 16.36298835 26.36425515 21.53344727 28.26928711 C22.20546173 28.50965698 22.8774762 28.75002686 23.56985474 28.99768066 C25.68818225 29.75762044 27.80213374 30.52899706 29.91625977 31.30053711 C31.35610206 31.81819315 32.79620437 32.3351266 34.23657227 32.85131836 C44.59991269 36.57986357 44.59991269 36.57986357 47.04125977 37.80053711 C46.12299992 35.39140169 46.12299992 35.39140169 42.65820312 34.56713867 C41.15120963 34.10182183 39.64198719 33.64368798 38.13110352 33.19116211 C36.48447584 32.6786014 34.83799626 32.16556476 33.19165039 31.65209961 C30.5956087 30.85181425 27.99829863 30.05644442 25.39794922 29.27026367 C4.22345317 22.83986621 4.22345317 22.83986621 -1.33374023 14.48803711 C-3.36259742 10.4841862 -4.20107502 6.1969892 -4.95874023 1.80053711 C-1.95874023 -0.19946289 -1.95874023 -0.19946289 0 0 Z M73.04125977 48.80053711 C73.04125977 49.13053711 73.04125977 49.46053711 73.04125977 49.80053711 C80.96125977 50.13053711 88.88125977 50.46053711 97.04125977 50.80053711 C92.08030494 45.83958228 90.69731112 44.67682739 84.22875977 44.48803711 C79.22758255 44.51732658 76.79048238 45.54463326 73.04125977 48.80053711 Z M131.04125977 54.80053711 C126.48605662 59.84819464 125.789119 65.19818438 126.04125977 71.80053711 C126.99009949 76.28398589 128.10650523 79.17736742 132.04125977 81.80053711 C137.10242254 82.4743142 141.58603891 82.6023935 146.10375977 80.11303711 C150.50488531 74.86008081 150.46972947 69.5177494 150.35766602 62.90600586 C149.94575748 58.86319991 148.8722106 56.70800013 146.04125977 53.80053711 C140.222429 49.43641404 136.55708198 50.43384452 131.04125977 54.80053711 Z M58.04125977 64.80053711 C56.27781034 66.56398653 56.78567928 68.96942154 56.72875977 71.36303711 C56.80866171 78.09877091 58.04099601 82.61542298 62.68969727 87.55053711 C68.67157373 92.98385722 73.90070323 94.27020488 81.91625977 94.11303711 C86.80403425 93.62425966 90.71894451 92.0717044 95.04125977 89.80053711 C95.83661133 89.38803711 96.63196289 88.97553711 97.45141602 88.55053711 C105.29054368 83.94390449 108.86076226 77.09941664 112.04125977 68.80053711 C95.97744594 64.93417504 79.77755293 64.82534984 63.40454102 66.77709961 C61.04125977 66.80053711 61.04125977 66.80053711 58.04125977 64.80053711 Z M174.04125977 72.80053711 C172.9016925 76.42707376 172.9016925 76.42707376 173.04125977 79.80053711 C174.67835292 81.48918299 174.67835292 81.48918299 177.04125977 82.80053711 C180.75187523 82.72323262 182.49578104 82.25755982 185.35375977 79.86303711 C188.39535026 76.14553762 188.12905367 73.54140778 188.04125977 68.80053711 C182.71445521 68.26785665 178.18697604 69.36721122 174.04125977 72.80053711 Z " fill="#F0F0F0" transform="translate(21.958740234375,86.199462890625)"/>
<path d="M0 0 C9.21088877 2.71358134 18.23498983 5.96173518 27.26611328 9.21582031 C30.09902543 10.23633164 32.93418529 11.25038417 35.76977539 12.26342773 C37.60129094 12.91995135 39.43267562 13.57684017 41.26391602 14.23413086 C42.51278343 14.68120644 42.51278343 14.68120644 43.78688049 15.13731384 C60.35698848 21.11626583 60.35698848 21.11626583 62.04125977 22.80053711 C62.11331488 24.48662677 62.12512044 26.1755437 62.10375977 27.86303711 C62.09473633 28.78213867 62.08571289 29.70124023 62.07641602 30.64819336 C62.06481445 31.3584668 62.05321289 32.06874023 62.04125977 32.80053711 C62.79149414 32.58397461 63.54172852 32.36741211 64.31469727 32.14428711 C77.40553521 28.5830516 89.29361988 28.74292852 101.41625977 35.55053711 C107.38783724 39.41958168 111.87267924 43.92022253 114.04125977 50.80053711 C114.30688477 54.21069336 114.30688477 54.21069336 114.29125977 57.86303711 C114.29899414 59.67481445 114.29899414 59.67481445 114.30688477 61.52319336 C114.06003726 64.56885601 113.64381952 66.2504321 112.04125977 68.80053711 C110.49934822 68.65731608 108.95774085 68.51081922 107.41625977 68.36303711 C106.12848633 68.2412207 106.12848633 68.2412207 104.81469727 68.11694336 C102.04125977 67.80053711 102.04125977 67.80053711 99.36547852 67.27319336 C94.72818266 66.61383637 90.15651839 66.65405212 85.47875977 66.67553711 C84.01635864 66.67626221 84.01635864 66.67626221 82.52441406 66.67700195 C76.09231808 66.70793831 69.79467258 67.01536207 63.40454102 67.77709961 C61.04125977 67.80053711 61.04125977 67.80053711 58.04125977 65.80053711 C57.59144542 73.29744291 57.37091774 79.60694506 62.04125977 85.80053711 C67.01095489 91.12423792 72.21523624 92.95486523 79.35375977 93.42553711 C80.42239258 93.50030273 81.49102539 93.57506836 82.59204102 93.65209961 C83.8044043 93.72557617 83.8044043 93.72557617 85.04125977 93.80053711 C85.04125977 94.13053711 85.04125977 94.46053711 85.04125977 94.80053711 C76.10800133 96.96617552 69.6822481 95.3485307 61.85375977 91.05053711 C56.21124812 86.53652779 53.64570125 81.86155839 52.04125977 74.80053711 C52.02809546 72.34144465 52.0923519 69.88087862 52.22875977 67.42553711 C52.34404887 61.2970111 51.63846592 57.5565326 48.13500977 52.53491211 C47.04125977 50.80053711 47.04125977 50.80053711 47.04125977 47.80053711 C46.38125977 47.80053711 45.72125977 47.80053711 45.04125977 47.80053711 C42.6052989 53.71644207 40.82354561 59.32453619 39.91625977 65.67553711 C39.74868164 66.82795898 39.58110352 67.98038086 39.40844727 69.16772461 C39.28727539 70.03655273 39.16610352 70.90538086 39.04125977 71.80053711 C30.35413219 71.04513471 22.13579093 68.18528404 16.04125977 61.80053711 C12.36396915 56.45697418 11.60726601 52.20194494 12.04125977 45.80053711 C12.04125977 42.43889904 11.6634845 41.99899884 9.66625977 39.48803711 C6.69795915 35.48251782 4.74882278 32.042554 5.41625977 26.92553711 C5.72563477 25.87366211 5.72563477 25.87366211 6.04125977 24.80053711 C11.51210178 25.33604881 16.36298835 26.36425515 21.53344727 28.26928711 C22.20546173 28.50965698 22.8774762 28.75002686 23.56985474 28.99768066 C25.68818225 29.75762044 27.80213374 30.52899706 29.91625977 31.30053711 C31.35610206 31.81819315 32.79620437 32.3351266 34.23657227 32.85131836 C44.59991269 36.57986357 44.59991269 36.57986357 47.04125977 37.80053711 C46.12299992 35.39140169 46.12299992 35.39140169 42.65820312 34.56713867 C41.15120963 34.10182183 39.64198719 33.64368798 38.13110352 33.19116211 C36.48447584 32.6786014 34.83799626 32.16556476 33.19165039 31.65209961 C30.5956087 30.85181425 27.99829863 30.05644442 25.39794922 29.27026367 C4.22345317 22.83986621 4.22345317 22.83986621 -1.33374023 14.48803711 C-3.36259742 10.4841862 -4.20107502 6.1969892 -4.95874023 1.80053711 C-1.95874023 -0.19946289 -1.95874023 -0.19946289 0 0 Z M73.04125977 48.80053711 C73.04125977 49.13053711 73.04125977 49.46053711 73.04125977 49.80053711 C80.96125977 50.13053711 88.88125977 50.46053711 97.04125977 50.80053711 C92.08030494 45.83958228 90.69731112 44.67682739 84.22875977 44.48803711 C79.22758255 44.51732658 76.79048238 45.54463326 73.04125977 48.80053711 Z " fill="#0071A6" transform="translate(21.958740234375,86.199462890625)"/>
<path d="M0 0 C0.91007812 0.00902344 1.82015625 0.01804687 2.7578125 0.02734375 C3.80582031 0.04474609 3.80582031 0.04474609 4.875 0.0625 C5.37 1.5475 5.37 1.5475 5.875 3.0625 C6.65875 2.5675 7.4425 2.0725 8.25 1.5625 C13.96529577 -0.80244997 19.87564345 -0.99701505 25.6875 1.3125 C32.70796141 5.16687097 36.50774947 9.33012841 38.875 17.0625 C39.90573041 25.92145015 39.82551133 34.32732604 34.875 42.0625 C34.2975 42.990625 33.72 43.91875 33.125 44.875 C26.79990957 51.02439347 20.93685446 51.42219412 12.51074219 51.44262695 C8.53565937 51.35594141 6.5264356 50.8882178 2.875 49.0625 C2.875 56.6525 2.875 64.2425 2.875 72.0625 C-0.095 72.0625 -3.065 72.0625 -6.125 72.0625 C-7.67450268 70.51299732 -7.34155193 68.96259406 -7.44140625 66.80859375 C-7.48330078 65.95458984 -7.52519531 65.10058594 -7.56835938 64.22070312 C-7.60767578 63.32287109 -7.64699219 62.42503906 -7.6875 61.5 C-7.73068359 60.59830078 -7.77386719 59.69660156 -7.81835938 58.76757812 C-7.92478142 56.53271515 -8.02679988 54.29773692 -8.125 52.0625 C-8.57963623 52.61502441 -9.03427246 53.16754883 -9.50268555 53.73681641 C-17.49191185 63.34312463 -25.87197981 68.92186272 -38.515625 70.48046875 C-50.04445306 70.95868247 -60.12565803 68.03574191 -69.0625 60.625 C-77.59449643 52.20642745 -81.72514415 42.19290234 -82.3125 30.25 C-82.1695421 22.03786282 -80.09245156 15.2039128 -76.125 8.0625 C-75.465 8.0625 -74.805 8.0625 -74.125 8.0625 C-69.07331319 16.13617802 -67.70630236 22.09721768 -68.09375 31.5703125 C-68.15014843 37.87283692 -66.36438677 42.18571432 -62.9375 47.375 C-56.79757212 53.24204219 -50.23524261 55.2158722 -41.875 55.125 C-40.79734375 55.11597656 -39.7196875 55.10695312 -38.609375 55.09765625 C-37.78953125 55.08605469 -36.9696875 55.07445312 -36.125 55.0625 C-36.125 54.4025 -36.125 53.7425 -36.125 53.0625 C-35.16400391 52.71638672 -35.16400391 52.71638672 -34.18359375 52.36328125 C-28.4607715 50.20549581 -24.00507964 47.72255973 -19.125 44.0625 C-18.465 44.0625 -17.805 44.0625 -17.125 44.0625 C-16.86847656 43.53140625 -16.61195312 43.0003125 -16.34765625 42.453125 C-15.44043094 40.67925315 -14.45624556 38.94430551 -13.43359375 37.234375 C-7.04388238 25.54880681 -6.99621073 14.18433334 -7.125 1.0625 C-4.60024538 -0.19987731 -2.81299534 -0.03606404 0 0 Z M9.875 15.0625 C5.31979686 20.11015753 4.62285923 25.46014727 4.875 32.0625 C5.82383972 36.54594878 6.94024547 39.43933031 10.875 42.0625 C15.93616277 42.73627709 20.41977914 42.86435639 24.9375 40.375 C29.33862555 35.1220437 29.3034697 29.77971229 29.19140625 23.16796875 C28.77949772 19.1251628 27.70595084 16.96996302 24.875 14.0625 C19.05616924 9.69837693 15.39082222 10.69580741 9.875 15.0625 Z " fill="#F6F6F6" transform="translate(143.125,125.9375)"/>
<path d="M0 0 C5.47084201 0.5355117 10.32172859 1.56371804 15.4921875 3.46875 C16.16420197 3.70911987 16.83621643 3.94948975 17.52859497 4.19714355 C19.64692248 4.95708334 21.76087397 5.72845995 23.875 6.5 C25.3148423 7.01765604 26.7549446 7.53458949 28.1953125 8.05078125 C38.55865293 11.77932646 38.55865293 11.77932646 41 13 C41.33 12.34 41.66 11.68 42 11 C42.14695312 11.90878906 42.14695312 11.90878906 42.296875 12.8359375 C43.44821208 19.28739529 45.17556334 25.08304456 48 31 C48.49306641 32.22589844 48.49306641 32.22589844 48.99609375 33.4765625 C50.41623555 36.18647242 51.33117215 37.46635066 54 39 C57.43994424 39.01151767 60.53567227 38.63353428 63.91381836 38.05859375 C76.84793777 35.86288117 90.18114694 37.62954782 103 40 C104.88258476 32.87086757 104.09974145 27.8701117 100.60546875 21.4296875 C95.85187018 14.23567701 89.20689957 10.27145065 81 8 C76.68317928 7.16340684 72.36565182 6.5200463 68 6 C68 5.67 68 5.34 68 5 C79.80798843 4.29465556 90.49404134 6.74367213 100 14 C104.76580945 18.47906987 107.74579663 22.73647733 108.265625 29.41015625 C108.26046875 30.61542969 108.2553125 31.82070312 108.25 33.0625 C108.25773437 34.87427734 108.25773437 34.87427734 108.265625 36.72265625 C108.01877749 39.7683189 107.60255975 41.449895 106 44 C104.45808846 43.85677897 102.91648108 43.71028211 101.375 43.5625 C100.51648438 43.48128906 99.65796875 43.40007812 98.7734375 43.31640625 C96 43 96 43 93.32421875 42.47265625 C88.68692289 41.81329926 84.11525862 41.85351502 79.4375 41.875 C77.97509888 41.8757251 77.97509888 41.8757251 76.4831543 41.87646484 C70.05105831 41.9074012 63.75341282 42.21482496 57.36328125 42.9765625 C55 43 55 43 52 41 C51.55018565 48.4969058 51.32965797 54.80640796 56 61 C60.96969513 66.32370081 66.17397648 68.15432812 73.3125 68.625 C74.38113281 68.69976562 75.44976562 68.77453125 76.55078125 68.8515625 C77.76314453 68.92503906 77.76314453 68.92503906 79 69 C79 69.33 79 69.66 79 70 C70.06674157 72.16563841 63.64098833 70.54799359 55.8125 66.25 C50.16998836 61.73599068 47.60444148 57.06102128 46 50 C45.98683569 47.54090754 46.05109214 45.08034151 46.1875 42.625 C46.3027891 36.49647399 45.59720615 32.75599549 42.09375 27.734375 C41 26 41 26 41 23 C40.34 23 39.68 23 39 23 C36.56403913 28.91590496 34.78228585 34.52399908 33.875 40.875 C33.70742188 42.02742188 33.53984375 43.17984375 33.3671875 44.3671875 C33.18542969 45.67042969 33.18542969 45.67042969 33 47 C24.31287243 46.2445976 16.09453117 43.38474694 10 37 C6.32270938 31.65643707 5.56600625 27.40140783 6 21 C6 17.63836193 5.62222474 17.19846173 3.625 14.6875 C0.65669939 10.68198071 -1.29243699 7.24201689 -0.625 2.125 C-0.41875 1.42375 -0.2125 0.7225 0 0 Z " fill="#010203" transform="translate(28,111)"/>
<path d="M0 0 C1.06089844 -0.04898438 2.12179688 -0.09796875 3.21484375 -0.1484375 C6.0625 0.375 6.0625 0.375 7.71875 2.2734375 C9.58043599 6.57046854 11.13013787 10.93863497 12.625 15.375 C13.22950543 17.14616241 13.83494599 18.91700599 14.44140625 20.6875 C14.83694702 21.85732422 14.83694702 21.85732422 15.24047852 23.05078125 C16.11436728 25.52165178 17.07420148 27.94788275 18.0625 30.375 C18.35495605 29.50174072 18.64741211 28.62848145 18.94873047 27.72875977 C20.03494322 24.49705063 21.1277305 21.26772509 22.22509766 18.03979492 C22.69912038 16.64095679 23.17048655 15.24121556 23.63916016 13.84057617 C24.3124039 11.8300967 24.99506372 9.8230345 25.6796875 7.81640625 C26.29239502 6.00184937 26.29239502 6.00184937 26.91748047 4.15063477 C28.0625 1.375 28.0625 1.375 30.0625 0.375 C31.93629605 0.30466231 33.81251102 0.2906978 35.6875 0.3125 C37.19183594 0.32603516 37.19183594 0.32603516 38.7265625 0.33984375 C39.49742187 0.35144531 40.26828125 0.36304687 41.0625 0.375 C42.21264648 1.90722656 42.21264648 1.90722656 43.0625 4.375 C42.39943733 7.02119358 41.64991985 9.33800975 40.66015625 11.859375 C40.2479911 12.95925751 40.2479911 12.95925751 39.82749939 14.08135986 C38.94083634 16.43489032 38.03282536 18.77956335 37.125 21.125 C36.54752122 22.65706011 35.97133636 24.18960859 35.39648438 25.72265625 C32.54268847 33.27650497 29.53957989 40.7560567 26.31640625 48.16015625 C26.03612076 48.80511047 25.75583527 49.4500647 25.46705627 50.11456299 C20.59145678 61.14241179 14.98928436 69.72696037 4.0625 75.375 C2.00390625 76.140625 2.00390625 76.140625 0.0625 76.375 C-3.59942973 73.93371351 -3.94789159 72.58083575 -4.9375 68.375 C-4.75390625 65.859375 -4.75390625 65.859375 -3.9375 63.375 C-2.01171875 61.78515625 -2.01171875 61.78515625 0.375 60.4375 C4.42542163 57.90517898 7.05054563 55.8561711 9.0625 51.375 C8.70771524 45.38140207 6.66794909 40.39818626 4.375 34.9375 C3.64840754 33.16460783 2.92316461 31.39116203 2.19921875 29.6171875 C1.83876465 28.73772461 1.47831055 27.85826172 1.10693359 26.95214844 C-0.42314268 23.17667271 -1.88041897 19.37606016 -3.3125 15.5625 C-3.77398437 14.33917969 -4.23546875 13.11585938 -4.7109375 11.85546875 C-5.93453916 8.38340162 -6.96511709 4.92374323 -7.9375 1.375 C-5.24210046 0.02730023 -3.00738169 0.09477809 0 0 Z " fill="#F5F5F5" transform="translate(226.9375,125.625)"/>
<path d="M0 0 C4.13226267 0.51653283 7.68990298 1.61612856 11.56542969 3.10180664 C14.3439182 4.12688278 17.14537253 5.05433456 19.9609375 5.97265625 C21.53294922 6.48602539 21.53294922 6.48602539 23.13671875 7.00976562 C25.3179213 7.71885379 27.50024007 8.42451643 29.68359375 9.12695312 C30.72386719 9.46791016 31.76414062 9.80886719 32.8359375 10.16015625 C34.25205322 10.61853882 34.25205322 10.61853882 35.69677734 11.08618164 C38 12 38 12 40 14 C40.55838569 16.79192847 40.33902311 18.43063018 38.87890625 20.8828125 C37.63060125 22.62973224 36.34816055 24.32924389 35 26 C9.30005164 18.86434842 9.30005164 18.86434842 2 10 C0.47450529 6.3388127 0 4.005002 0 0 Z " fill="#006DA1" transform="translate(27,112)"/>
<path d="M0 0 C8.51373874 -0.56340918 14.39884822 -0.01790718 20.94140625 5.6953125 C26.49062367 11.41830499 28.49061311 17.50041581 29.375 25.3125 C29 28 29 28 27.4609375 30.296875 C25.69581573 33.56282223 25.89286399 35.28625418 26.25 38.9375 C26.41142722 44.41257335 26.41142722 44.41257335 24.59375 47.0078125 C22.80276685 48.51800592 20.99216055 49.77171801 19 51 C18.0409375 51.86625 18.0409375 51.86625 17.0625 52.75 C10.08382419 56.97950049 1.69857203 56.66204059 -6 55 C-6.01981934 55.56509277 -6.03963867 56.13018555 -6.06005859 56.71240234 C-6.15518236 59.26707997 -6.26491058 61.82092541 -6.375 64.375 C-6.42140625 65.70917969 -6.42140625 65.70917969 -6.46875 67.0703125 C-6.52675781 68.34648437 -6.52675781 68.34648437 -6.5859375 69.6484375 C-6.6173584 70.43395996 -6.6487793 71.21948242 -6.68115234 72.02880859 C-7 74 -7 74 -9 76 C-11.6015625 76.1953125 -11.6015625 76.1953125 -14.625 76.125 C-15.62789062 76.10695313 -16.63078125 76.08890625 -17.6640625 76.0703125 C-18.43492187 76.04710937 -19.20578125 76.02390625 -20 76 C-20.33 75.01 -20.66 74.02 -21 73 C-18.03 73 -15.06 73 -12 73 C-12 65.41 -12 57.82 -12 50 C-10.68 50.33 -9.36 50.66 -8 51 C4.78067229 52.1139343 4.78067229 52.1139343 16 47 C22.74405604 39.80285492 23.63782412 31.49156936 23.375 21.99609375 C22.96232491 15.74554004 20.70848073 10.96174126 16.49609375 6.35546875 C11.72897935 2.36947189 6.01102339 1.72827951 0 1 C0 0.67 0 0.34 0 0 Z " fill="#030303" transform="translate(158,125)"/>
<path d="M0 0 C3.63 0 7.26 0 11 0 C13 4 13 4 12.14477539 7.41308594 C11.64510361 8.77616763 11.12814404 10.1329882 10.59765625 11.484375 C10.1854911 12.58425751 10.1854911 12.58425751 9.76499939 13.70635986 C8.87833634 16.05989032 7.97032536 18.40456335 7.0625 20.75 C6.48502122 22.28206011 5.90883636 23.81460859 5.33398438 25.34765625 C2.48018847 32.90150497 -0.52292011 40.3810567 -3.74609375 47.78515625 C-4.02637924 48.43011047 -4.30666473 49.0750647 -4.59544373 49.73956299 C-9.47104322 60.76741179 -15.07321564 69.35196037 -26 75 C-28.05859375 75.765625 -28.05859375 75.765625 -30 76 C-30.99 75.34 -31.98 74.68 -33 74 C-33 73.34 -33 72.68 -33 72 C-31.205625 71.4121875 -31.205625 71.4121875 -29.375 70.8125 C-19.8993717 67.16546556 -14.95688337 59.57677989 -10.90737915 50.56976318 C-8.00426336 43.67320518 -5.35186115 36.67881392 -2.6875 29.6875 C-1.87019911 27.57185641 -1.05184778 25.45661831 -0.23242188 23.34179688 C4.10044145 12.24904764 4.10044145 12.24904764 8 1 C5.36 1 2.72 1 0 1 C0 0.67 0 0.34 0 0 Z " fill="#050505" transform="translate(257,126)"/>
<path d="M0 0 C9.99229792 2.36809992 19.57909405 5.93973305 29.22485352 9.4152832 C32.05776567 10.43579453 34.89292553 11.44984706 37.72851562 12.46289062 C39.56003117 13.11941424 41.39141585 13.77630307 43.22265625 14.43359375 C44.47152367 14.88066933 44.47152367 14.88066933 45.74562073 15.33677673 C62.31572872 21.31572872 62.31572872 21.31572872 64 23 C64.07205511 24.68608966 64.08386068 26.37500659 64.0625 28.0625 C64.05347656 28.98160156 64.04445313 29.90070313 64.03515625 30.84765625 C64.02355469 31.55792969 64.01195313 32.26820312 64 33 C64.66 33.33 65.32 33.66 66 34 C65.01 34.495 65.01 34.495 64 35 C64.99 39.62 65.98 44.24 67 49 C68.11375 48.05125 69.2275 47.1025 70.375 46.125 C74.98863342 42.69935685 79.23305217 41.11605313 85 41 C90.46288745 41.92782374 95.10452917 43.9864846 99 48 C99.70740219 49.64978919 100.38008406 51.31538537 101 53 C99.84951172 52.89171875 99.84951172 52.89171875 98.67578125 52.78125 C87.77696789 51.86985097 76.92930391 51.89831023 66 52 C65.35635109 50.7450359 64.71646274 49.48814269 64.078125 48.23046875 C63.72137695 47.53074951 63.36462891 46.83103027 62.99707031 46.11010742 C59.44523358 38.59332856 59.77637584 31.14985842 60 23 C59.44957031 22.87625 58.89914063 22.7525 58.33203125 22.625 C50.54427324 20.69315305 43.16407164 17.86890601 35.70239258 14.95703125 C26.95493776 11.54848676 18.12162543 8.70230782 9.11328125 6.0625 C5.90167569 4.9664439 2.99811861 3.58221552 0 2 C0 1.34 0 0.68 0 0 Z M75 49 C75 49.33 75 49.66 75 50 C82.92 50.33 90.84 50.66 99 51 C94.03904518 46.03904518 92.65605136 44.87629029 86.1875 44.6875 C81.18632279 44.71678947 78.74922261 45.74409615 75 49 Z " fill="#000203" transform="translate(20,86)"/>
<path d="M0 0 C14.71384167 -0.81869907 14.71384167 -0.81869907 19.984375 2.109375 C25.78403323 7.5493645 28.61120947 15.08014578 29.12701416 22.93395996 C29.45782576 33.29093098 28.75906875 43.67538613 28 54 C26.55323597 54.19868592 25.10501378 54.38677561 23.65625 54.5703125 C22.84994141 54.67617676 22.04363281 54.78204102 21.21289062 54.89111328 C19 55 19 55 16.5 53.875 C13.45414016 52.80894906 12.74703491 53.29543842 9.8125 54.4375 C4.66324006 56.37169614 0.32874541 56.23186409 -5 55 C-8.27278066 53.46806012 -10.58335198 51.67103202 -13 49 C-12.67 48.34 -12.34 47.68 -12 47 C-11.2575 47.66 -10.515 48.32 -9.75 49 C-4.98518694 52.16899681 0.51917831 51.7557224 6 51 C8.73943656 49.94491476 10.58509005 48.7324354 13 47 C13.99 46.505 13.99 46.505 15 46 C15 47.65 15 49.3 15 51 C17.97 51 20.94 51 24 51 C23.83862549 49.9886499 23.67725098 48.9772998 23.51098633 47.93530273 C23.03310307 44.25493954 22.85972899 40.74278251 22.82421875 37.03515625 C22.78844727 35.09286133 22.78844727 35.09286133 22.75195312 33.11132812 C22.71690669 31.08623218 22.68749496 29.06173911 22.67407227 27.03637695 C22.62976629 15.86664057 22.62976629 15.86664057 18 6 C14.35022321 2.97589923 10.82600814 2.42159703 6.1875 1.8125 C5.02605469 1.65394531 3.86460937 1.49539062 2.66796875 1.33203125 C1.34732422 1.16767578 1.34732422 1.16767578 0 1 C0 0.67 0 0.34 0 0 Z " fill="#020202" transform="translate(198,125)"/>
<path d="M0 0 C3.01281675 0.96840538 6.00564909 1.97642086 9 3 C9.65355469 3.21462891 10.30710937 3.42925781 10.98046875 3.65039062 C13.16119661 4.37134164 15.33047457 5.12107542 17.5 5.875 C18.57797852 6.22328857 18.57797852 6.22328857 19.67773438 6.57861328 C21.71875 7.3046875 21.71875 7.3046875 25 9 C26.49061963 12.47433396 25.97478024 15.21704258 25.0625 18.8125 C24.86785156 19.60269531 24.67320313 20.39289063 24.47265625 21.20703125 C24.31667969 21.79871094 24.16070312 22.39039063 24 23 C16.5143085 21.67899562 8.88954378 18.88401192 3 14 C-0.24860472 9.23537975 -0.28788265 5.56573129 0 0 Z " fill="#00699D" transform="translate(34,132)"/>
<path d="M0 0 C0.33 0 0.66 0 1 0 C1 11.22 1 22.44 1 34 C0.67 34 0.34 34 0 34 C-0.33 27.73 -0.66 21.46 -1 15 C-1.99 16.19625 -2.98 17.3925 -4 18.625 C-11.63847888 27.2544991 -19.79181288 31.98816126 -31.390625 33.41796875 C-43.20005665 33.90782186 -53.54808419 30.86535887 -62.3125 22.875 C-66.817466 18.547602 -66.817466 18.547602 -68 15 C-67.34 15 -66.68 15 -66 15 C-65.12366724 16.02732253 -64.29862789 17.09867302 -63.5 18.1875 C-58.24940089 24.51383161 -50.06144655 27.89653203 -42 29 C-30.84967115 30.03039342 -20.87133717 26.82525436 -12 20 C-6.26133605 14.27250077 -3.01727901 7.4389137 0 0 Z " fill="#030303" transform="translate(136,163)"/>
<path d="M0 0 C1.94048456 1.45536342 3.62525774 2.89173224 5.25 4.6875 C4.92 5.3475 4.59 6.0075 4.25 6.6875 C3.899375 6.213125 3.54875 5.73875 3.1875 5.25 C0.25218584 2.88281116 -2.01908031 2.75073593 -5.75 2.6875 C-10.14724987 4.88612494 -12.901015 7.113695 -14.75 11.6875 C-16.1987961 18.83040168 -16.02083373 24.14583254 -12.75 30.6875 C-10.31612247 31.90443876 -8.33161154 32.00709896 -5.625 32.25 C-4.71492188 32.33378906 -3.80484375 32.41757813 -2.8671875 32.50390625 C-2.16851562 32.56449219 -1.46984375 32.62507813 -0.75 32.6875 C-4.46575751 35.16467167 -6.34986738 34.99095742 -10.75 34.6875 C-15.23714122 33.53962666 -17.16256329 31.47624661 -19.75 27.6875 C-21.68804434 21.87336699 -21.83282004 14.49330152 -19.5 8.75 C-14.99411663 0.86470411 -9.46794456 -4.51879172 0 0 Z " fill="#040404" transform="translate(164.75,135.3125)"/>
<path d="M0 0 C1.93559313 -0.13504138 3.873872 -0.23201129 5.8125 -0.3125 C6.89144531 -0.37050781 7.97039062 -0.42851563 9.08203125 -0.48828125 C12 0 12 0 13.6640625 1.89453125 C15.51438354 6.19571612 17.06781213 10.56415213 18.5625 15 C19.16700543 16.77116241 19.77244599 18.54200599 20.37890625 20.3125 C20.7980127 21.54867065 20.7980127 21.54867065 21.22558594 22.80981445 C21.82921772 24.51699627 22.51786436 26.19419196 23.23828125 27.85546875 C24.50517635 31.42226574 23.6239176 34.31888614 23 38 C19.73251773 36.36625886 19.31211908 32.82370336 18.1796875 29.53515625 C17.91616486 28.78664902 17.65264221 28.03814178 17.38113403 27.26695251 C16.82469658 25.68186035 16.2718041 24.09552001 15.72216797 22.50805664 C14.87879257 20.07344818 14.02436106 17.6429469 13.16796875 15.21289062 C12.62955247 13.67470858 12.09177066 12.13630428 11.5546875 10.59765625 C11.29847626 9.86740738 11.04226501 9.13715851 10.77828979 8.38478088 C9 3.23287274 9 3.23287274 9 1 C6.03 1 3.06 1 0 1 C0 0.67 0 0.34 0 0 Z " fill="#030303" transform="translate(221,126)"/>
<path d="M0 0 C0.66 0 1.32 0 2 0 C2.639375 0.74121094 3.27875 1.48242188 3.9375 2.24609375 C7.76333876 6.21596079 12.87483638 7.40898246 18 9.0625 C19.02786621 9.40684082 20.05573242 9.75118164 21.11474609 10.10595703 C27.53593844 12.24365409 33.98194271 14.30703526 40.4765625 16.2109375 C43.04662003 17.01457778 45.51388199 17.96785714 48 19 C47.505 20.485 47.505 20.485 47 22 C41.87056788 20.42118286 36.74831529 18.82139647 31.63134766 17.20263672 C29.89321472 16.65594246 28.15331997 16.1148148 26.41162109 15.57958984 C23.89446209 14.80496842 21.38452207 14.00990687 18.875 13.2109375 C18.10696045 12.97941986 17.3389209 12.74790222 16.54760742 12.5093689 C10.48477598 10.54515207 3.99993065 7.58176203 0.77685547 1.80941772 C0.52049316 1.21230988 0.26413086 0.61520203 0 0 Z " fill="#000203" transform="translate(21,100)"/>
<path d="M0 0 C0.79921875 0.00902344 1.5984375 0.01804688 2.421875 0.02734375 C3.02515625 0.03894531 3.6284375 0.05054688 4.25 0.0625 C4.25 1.0525 4.25 2.0425 4.25 3.0625 C3.64671875 3.18367187 3.0434375 3.30484375 2.421875 3.4296875 C1.22304687 3.68105469 1.22304687 3.68105469 0 3.9375 C-1.18335938 4.18113281 -1.18335938 4.18113281 -2.390625 4.4296875 C-4.78523641 5.07195082 -6.678441 5.69379137 -8.75 7.0625 C-9.56870185 10.62456661 -9.56870185 10.62456661 -9.75 14.0625 C-7.77 15.0525 -5.79 16.0425 -3.75 17.0625 C-3.75 17.3925 -3.75 17.7225 -3.75 18.0625 C-9.97222222 18.54113248 -9.97222222 18.54113248 -13.1875 16.5625 C-14.97562764 13.70149577 -15.43725472 11.4084051 -15.2734375 8.03125 C-14.28315949 4.30662227 -11.93616139 3.08448704 -8.75 1.0625 C-5.78400763 0.09004349 -3.10956933 -0.04572896 0 0 Z " fill="#030303" transform="translate(205.75,151.9375)"/>
<path d="M0 0 C1.43931117 0.45261358 2.87638999 0.91232979 4.3125 1.375 C5.11300781 1.63023437 5.91351563 1.88546875 6.73828125 2.1484375 C9 3 9 3 12 5 C11.01 5 10.02 5 9 5 C9 8.96 9 12.92 9 17 C5.40676229 15.56270492 3.36380813 14.52145831 1.125 11.3125 C-0.25381015 7.25267011 -0.22061246 4.26517418 0 0 Z " fill="#004A76" transform="translate(34,132)"/>
<path d="M0 0 C2.31 0.33 4.62 0.66 7 1 C8.59789351 5.95346987 7.28306814 10.13282415 6 15 C1.125 14.125 1.125 14.125 0 13 C-0.07258946 10.81360547 -0.08373783 8.62499611 -0.0625 6.4375 C-0.05347656 5.23996094 -0.04445312 4.04242188 -0.03515625 2.80859375 C-0.02355469 1.88175781 -0.01195312 0.95492187 0 0 Z " fill="#008AC2" transform="translate(52,140)"/>
<path d="M0 0 C2.33203125 1.5234375 2.33203125 1.5234375 4 3 C3.67 3.66 3.34 4.32 3 5 C2.34 4.67 1.68 4.34 1 4 C-4.22819411 3.55832545 -8.1528093 3.98033721 -13 6 C-15.8125 5.625 -15.8125 5.625 -18 5 C-18 4.34 -18 3.68 -18 3 C-12.1634789 -0.11281125 -6.59459881 -1.03009047 0 0 Z " fill="#010101" transform="translate(206,134)"/>
<path d="M0 0 C1.65 0 3.3 0 5 0 C4.01 0.495 4.01 0.495 3 1 C3 5.29 3 9.58 3 14 C2.34 14 1.68 14 1 14 C-0.38226016 11.23547967 -0.09525387 8.9538637 -0.0625 5.875 C-0.05347656 4.77929688 -0.04445312 3.68359375 -0.03515625 2.5546875 C-0.02355469 1.71164063 -0.01195312 0.86859375 0 0 Z " fill="#007AB0" transform="translate(49,139)"/>
<path d="M0 0 C3.3 0 6.6 0 10 0 C10.66 1.32 11.32 2.64 12 4 C9.525 5.485 9.525 5.485 7 7 C7 5.02 7 3.04 7 1 C4.69 1 2.38 1 0 1 C0 0.67 0 0.34 0 0 Z " fill="#000000" transform="translate(138,126)"/>
<path d="M0 0 C0.33 0 0.66 0 1 0 C1.24954005 1.43410368 1.47392642 2.87260072 1.6875 4.3125 C1.87892578 5.51326172 1.87892578 5.51326172 2.07421875 6.73828125 C2 9 2 9 0.51953125 10.79296875 C0.01808594 11.19128906 -0.48335937 11.58960938 -1 12 C-1.02687279 10.18757948 -1.04633715 8.37504767 -1.0625 6.5625 C-1.07410156 5.55316406 -1.08570313 4.54382813 -1.09765625 3.50390625 C-1 1 -1 1 0 0 Z " fill="#0094CE" transform="translate(57,142)"/>
</svg>
